<?xml version="1.0" standalone="no"?>
<!DOCTYPE svg PUBLIC "-//W3C//DTD SVG 20010904//EN"
 "http://www.w3.org/TR/2001/REC-SVG-20010904/DTD/svg10.dtd">
<svg version="1.0" xmlns="http://www.w3.org/2000/svg"
 width="1189.000000pt" height="817.000000pt" viewBox="0 0 1189.000000 817.000000"
 preserveAspectRatio="xMidYMid meet">
<metadata>
Created by potrace 1.15, written by Peter Selinger 2001-2017
</metadata>
<g transform="translate(0.000000,817.000000) scale(0.100000,-0.100000)"
fill="#000000" stroke="none">
<path d="M0 4085 l0 -4085 5945 0 5945 0 0 4085 0 4085 -5945 0 -5945 0 0
-4085z m8420 2347 c0 -158 5 -327 10 -377 5 -49 10 -178 10 -285 1 -124 6
-225 15 -279 17 -97 21 -605 6 -687 -22 -116 -33 -305 -18 -320 7 -7 116 8
177 26 l35 10 -3 102 c-5 142 15 355 43 463 13 50 26 137 29 194 4 58 8 106
10 109 2 2 13 -1 24 -7 41 -22 42 -181 2 -296 -13 -38 -24 -106 -30 -185 -5
-69 -13 -165 -19 -215 -6 -49 -14 -125 -17 -167 l-6 -78 -36 -9 c-21 -6 -84
-15 -140 -21 -76 -7 -112 -15 -132 -30 -47 -33 -96 -109 -152 -236 -30 -65
-77 -153 -105 -195 -51 -76 -194 -219 -218 -219 -7 0 -16 11 -19 24 -6 23 -29
354 -43 599 -3 64 -9 117 -12 117 -4 0 -24 -12 -45 -26 -55 -37 -111 -42 -167
-14 -110 56 -169 132 -249 320 -30 69 -59 133 -66 143 -11 18 -12 18 -19 -4
-4 -12 -4 -113 -1 -223 6 -158 4 -225 -8 -311 -9 -61 -20 -232 -26 -380 -9
-268 -14 -315 -31 -315 -16 0 -165 78 -177 93 -9 10 -10 63 -3 214 9 198 7
240 -16 278 -20 34 -27 8 -26 -105 0 -118 4 -110 -59 -124 -28 -6 -27 -8 -44
87 -6 36 -7 37 -50 37 -24 0 -44 3 -44 6 0 3 11 25 25 49 l26 43 -57 66 c-83
98 -94 91 -103 -69 l-6 -100 -38 -3 c-21 -2 -40 -9 -42 -15 -2 -7 -9 -31 -15
-54 -10 -40 -13 -43 -45 -43 -42 0 -51 15 -54 95 -1 33 -6 78 -12 100 -10 37
-12 38 -25 20 -18 -25 -18 -14 -18 -280 l-1 -230 -72 -3 c-40 -2 -74 -2 -75 0
-1 2 -4 159 -7 350 -3 190 -9 350 -13 354 -4 4 -43 -20 -85 -53 -43 -33 -110
-80 -149 -105 -40 -25 -75 -52 -79 -58 -4 -7 -7 -138 -6 -291 2 -296 0 -310
-48 -353 -18 -17 -21 -17 -36 -2 -18 18 -45 21 -45 6 0 -5 -7 -10 -15 -10 -21
0 -32 32 -50 145 -17 107 -19 173 -6 194 11 17 24 -26 46 -147 8 -43 19 -94
25 -115 l11 -39 32 25 32 25 0 278 0 279 -65 33 -65 33 -7 -38 c-4 -21 -4 -98
-1 -170 4 -93 3 -133 -5 -133 -6 0 -14 5 -17 11 -16 25 -27 -3 -31 -81 -11
-206 -43 -319 -83 -287 -10 9 -16 7 -26 -7 -13 -17 -15 -17 -49 9 -43 32 -41
15 -26 377 12 266 16 245 -64 362 -48 71 -80 159 -102 289 -13 73 -15 132 -10
282 9 293 23 515 45 685 22 176 35 233 67 308 19 44 27 52 50 52 37 0 91 -35
101 -67 6 -17 1 -65 -14 -147 -46 -251 -52 -332 -54 -746 -1 -455 8 -549 58
-602 48 -50 105 -19 137 74 36 103 149 315 238 448 85 126 123 175 249 325
l51 60 -5 110 c-6 133 -21 319 -48 603 -11 117 -19 235 -18 261 2 40 -4 60
-39 124 -23 41 -46 79 -52 82 -13 8 -52 -80 -73 -165 -40 -161 -55 -368 -77
-1054 -5 -164 -12 -301 -15 -304 -17 -17 -20 47 -19 386 1 512 31 894 85 1076
22 73 71 156 93 156 19 0 73 -61 91 -103 9 -21 18 -69 22 -105 3 -37 14 -93
25 -125 12 -39 22 -110 28 -210 5 -84 14 -194 20 -245 5 -50 10 -173 9 -273 0
-99 1 -183 4 -185 2 -2 40 16 83 41 154 88 216 94 277 25 42 -46 54 -102 38
-181 -35 -181 -92 -596 -87 -633 10 -63 20 -74 46 -51 38 34 47 66 64 215 30
267 65 425 103 471 32 38 83 40 118 4 33 -32 33 -82 0 -257 -13 -74 -31 -180
-40 -236 -16 -110 -20 -272 -7 -272 14 0 84 89 125 157 53 87 88 176 168 428
39 120 73 223 76 229 3 5 10 77 14 160 8 155 31 428 49 571 6 44 10 158 10
254 0 148 2 177 17 193 9 10 22 18 28 18 33 0 24 -307 -14 -497 -12 -55 -25
-178 -31 -274 -6 -96 -15 -214 -21 -263 l-10 -90 54 -50 c35 -33 57 -62 60
-81 52 -272 74 -351 129 -460 35 -71 68 -108 116 -131 35 -16 36 -16 55 7 57
69 98 196 120 374 15 113 11 177 -16 280 l-13 50 -65 3 c-35 2 -67 6 -72 11
-4 4 3 58 15 120 21 112 21 114 5 309 -18 206 -21 393 -8 427 7 18 9 17 15
-10 17 -79 26 -200 32 -410 7 -299 6 -290 30 -290 33 0 31 173 -5 434 -31 221
-49 481 -37 519 9 28 27 27 48 -2 14 -20 17 -53 19 -222 1 -110 8 -253 16
-319 7 -66 16 -181 19 -255 l7 -135 61 -40 c51 -34 66 -51 94 -105 46 -92 64
-189 60 -332 -1 -71 -7 -122 -13 -126 -6 -4 -29 -52 -52 -107 -22 -55 -57
-137 -77 -181 l-36 -82 16 -98 c9 -59 18 -196 21 -336 4 -183 9 -238 18 -238
19 0 90 62 136 117 21 26 77 124 123 218 47 93 105 197 130 229 36 47 46 70
52 115 7 54 -4 179 -25 286 -13 65 -13 550 -1 640 14 100 31 493 39 900 6 332
11 392 32 379 5 -3 9 -134 9 -292z m-4281 249 c8 -5 30 -69 48 -143 27 -106
35 -161 40 -273 7 -166 -3 -303 -20 -286 -8 8 -13 74 -15 194 -3 180 -3 183
-33 240 -17 31 -36 88 -43 125 l-12 67 -60 0 -59 0 -7 -56 c-4 -30 -21 -93
-37 -139 l-31 -84 0 -227 c0 -241 -13 -358 -33 -309 -7 15 -13 140 -15 311 -4
284 -3 287 22 360 13 41 32 106 42 144 9 39 18 73 21 78 6 10 175 9 192 -2z
m404 -58 c3 -39 18 -98 34 -138 27 -68 28 -74 27 -253 l-2 -184 37 6 c20 3 99
8 176 12 157 7 221 -3 330 -55 86 -41 139 -91 177 -169 32 -65 33 -69 33 -202
0 -122 -2 -141 -25 -195 -29 -67 -75 -139 -150 -233 l-50 -63 0 -354 c0 -195
-4 -356 -9 -359 -5 -3 -15 2 -22 11 -11 13 -15 84 -17 335 -2 175 -5 318 -7
318 -3 0 -52 -31 -109 -69 -58 -38 -126 -77 -153 -86 -113 -42 -193 -78 -193
-87 0 -45 354 -409 439 -451 71 -35 132 -35 211 -2 33 14 62 25 64 25 3 0 12
-13 21 -30 39 -76 2 -126 -130 -173 l-90 -32 -1 -235 c-1 -175 -5 -247 -15
-280 -14 -43 -16 -45 -59 -48 -66 -5 -85 3 -104 46 -14 31 -17 74 -19 262 l-2
225 -50 3 c-27 2 -73 1 -102 -3 l-52 -6 -3 -287 c-3 -304 -7 -332 -50 -332
-21 0 -21 0 -2 15 19 14 19 14 -3 15 -12 0 -23 -4 -25 -9 -2 -6 -18 -6 -38 -2
l-35 7 -3 434 c-3 430 2 566 19 525 4 -11 8 -224 8 -473 l1 -453 38 3 37 3 6
350 c3 193 6 351 7 353 1 1 18 2 37 2 30 0 35 -4 43 -32 8 -33 9 -33 75 -36
49 -2 67 1 67 10 0 7 -43 53 -96 103 -53 49 -140 144 -193 210 -53 65 -121
146 -151 179 -59 64 -166 140 -183 129 -14 -8 -2 -428 13 -471 10 -26 26 -40
74 -64 88 -44 96 -53 96 -109 0 -26 5 -60 10 -75 6 -15 9 -28 7 -31 -2 -2 -46
8 -98 22 -52 14 -95 25 -96 25 -2 0 -3 -119 -3 -265 l0 -265 -44 0 -45 0 -7
57 c-4 31 -4 158 -1 282 l5 226 -40 93 c-67 160 -71 189 -71 447 1 329 21 519
85 790 18 78 37 135 47 143 16 14 133 13 147 -1 4 -3 9 -37 11 -74 4 -51 -2
-97 -21 -183 -44 -190 -67 -313 -64 -345 l3 -30 88 -9 c77 -8 98 -6 170 13
223 60 444 213 560 387 61 93 77 140 77 228 0 103 -35 171 -105 206 -47 23
-60 25 -200 25 -90 0 -174 -5 -211 -14 l-61 -13 -6 -136 c-4 -74 -7 -235 -7
-356 0 -122 -3 -231 -6 -243 -18 -65 -24 20 -24 316 0 181 -3 343 -6 360 -5
21 -12 31 -25 31 -28 0 -164 -56 -259 -107 -90 -48 -310 -191 -347 -226 l-23
-20 0 -978 0 -977 -30 -26 c-28 -23 -86 -46 -117 -46 -13 0 -40 109 -50 200
-3 37 -2 60 4 60 13 0 39 -60 54 -123 11 -47 13 -49 42 -43 17 3 33 9 36 12 3
3 7 426 9 939 l3 934 -33 17 c-18 9 -52 30 -76 46 -49 34 -49 37 27 116 68 69
142 123 318 229 93 57 148 96 154 111 5 13 8 121 7 240 -2 205 -1 220 21 277
12 33 27 91 32 128 5 38 11 72 14 78 4 5 53 9 109 9 l103 0 6 -67z m2962 6 c4
-5 6 -87 6 -182 -1 -95 4 -282 10 -417 8 -167 8 -283 1 -365 -5 -66 -8 -121
-7 -123 8 -9 74 35 79 52 2 12 8 135 12 274 4 139 8 265 9 280 1 15 3 132 3
260 l2 232 28 0 29 0 6 -107 c6 -116 1 -232 -15 -328 -5 -33 -13 -186 -18
-340 -5 -154 -14 -316 -20 -359 -6 -44 -10 -109 -8 -145 l3 -66 -60 0 -60 0
-7 110 c-4 61 -10 252 -14 425 -3 173 -10 324 -14 334 -4 12 -10 -29 -14 -95
-4 -62 -11 -143 -16 -179 -5 -36 -10 -147 -10 -247 -1 -101 -5 -195 -9 -210
l-8 -28 -16 32 c-13 25 -17 60 -17 165 0 135 21 432 40 568 5 41 15 111 21
155 6 46 8 122 4 177 -4 54 -4 106 0 118 7 21 49 28 60 9z m1435 -754 c6 -19
13 -86 14 -148 2 -61 7 -151 11 -199 6 -63 4 -95 -5 -117 -7 -17 -16 -31 -20
-31 -4 0 -11 28 -14 63 -12 108 -23 94 -29 -35 -3 -67 -13 -152 -21 -188 -8
-36 -20 -137 -27 -225 -6 -88 -15 -164 -19 -168 -12 -14 -38 4 -49 34 -7 19
-7 48 0 86 19 106 28 188 29 239 0 28 11 88 25 135 31 102 50 269 46 405 -2
75 2 111 14 142 10 23 21 42 25 42 5 0 14 -16 20 -35z m-5259 -299 c1 0 5
-127 9 -281 7 -265 9 -284 34 -358 14 -43 26 -92 26 -109 0 -32 -60 -264 -86
-331 -20 -53 -18 -95 16 -322 30 -195 49 -425 37 -425 -4 0 -13 12 -21 27
l-14 28 -6 -50 c-24 -199 -51 -287 -99 -311 -41 -22 -53 -13 -62 43 -11 75
-45 194 -70 243 -13 25 -41 61 -62 81 -50 48 -247 193 -299 221 l-41 22 -44
-36 c-24 -19 -91 -68 -149 -108 -58 -39 -120 -86 -138 -104 -71 -66 -106 -173
-117 -361 -4 -60 -14 -130 -22 -155 -18 -55 -81 -160 -95 -160 -17 0 -2 81 27
152 20 48 30 98 41 211 25 259 82 366 247 466 45 27 115 74 155 104 68 52 75
54 110 46 20 -5 49 -9 65 -9 l27 0 0 620 0 620 23 0 c68 -1 68 2 67 -689 -1
-339 -1 -623 0 -632 0 -10 32 -37 75 -63 122 -77 179 -157 211 -294 18 -81 36
-132 45 -132 3 0 17 26 29 58 40 98 40 394 0 712 -28 219 -39 351 -44 498 l-5
164 40 42 39 43 0 189 c0 104 3 226 6 270 6 73 9 81 25 77 11 -3 20 -6 20 -7z
m5420 -300 c5 -58 19 -149 33 -203 34 -139 36 -152 45 -414 6 -157 13 -244 21
-260 7 -13 39 -60 70 -104 107 -150 152 -288 200 -613 22 -147 29 -492 10
-492 -5 0 -10 5 -10 10 0 32 -43 430 -56 520 -26 182 -78 355 -134 451 -16 26
-55 85 -86 130 l-57 82 -8 181 c-4 122 -12 197 -23 230 -10 32 -16 85 -16 150
0 56 -5 108 -10 116 -7 10 -10 -17 -10 -86 0 -99 0 -101 -30 -129 -40 -38 -47
-28 -55 84 -3 47 -15 159 -27 249 -23 179 -19 201 25 156 27 -26 27 -28 27
-170 0 -79 4 -144 9 -144 16 0 33 95 41 235 5 77 9 142 9 145 1 2 6 -1 13 -8
6 -6 15 -58 19 -116z m-3348 -240 c10 -26 7 -362 -3 -418 -6 -32 -18 -75 -27
-95 l-16 -38 -8 35 c-6 26 -6 515 0 528 4 9 50 -1 54 -12z m-334 -2072 c25
-32 26 -51 5 -104 -30 -74 -49 -28 -29 68 5 21 3 32 -4 32 -52 0 -154 -108
-177 -188 -19 -64 -7 -131 24 -133 37 -3 49 4 95 53 l47 52 0 -31 c0 -63 -97
-119 -160 -93 -86 36 -78 184 16 289 74 82 145 103 183 55z m1031 1 c8 -9 10
-28 6 -50 -6 -31 -4 -35 14 -35 13 0 28 13 41 35 26 44 39 44 39 1 0 -21 6
-36 15 -40 25 -9 17 -26 -13 -26 -25 0 -33 -9 -70 -79 -46 -86 -55 -141 -23
-141 26 0 68 52 81 101 13 48 64 106 101 114 21 5 32 0 53 -22 14 -15 26 -36
26 -45 0 -10 4 -18 8 -18 18 0 31 24 26 49 -4 18 1 35 16 54 29 37 43 34 38
-8 -4 -39 0 -42 43 -20 28 15 30 15 40 -9 10 -22 7 -31 -25 -75 -21 -28 -40
-66 -43 -86 -5 -30 -3 -35 14 -35 27 0 36 12 91 122 26 51 52 92 57 91 22 -5
15 -45 -19 -114 -41 -83 -44 -99 -18 -99 25 0 44 23 76 92 32 69 96 128 138
128 17 0 31 -7 35 -16 5 -15 7 -15 15 0 12 22 25 20 31 -5 3 -12 -9 -48 -34
-94 -21 -41 -39 -81 -39 -90 0 -31 41 -12 73 35 l17 24 0 -26 c0 -55 -93 -91
-123 -48 l-14 20 -18 -20 c-22 -24 -70 -26 -83 -4 -9 16 -11 16 -33 0 -27 -19
-70 -21 -87 -4 -8 8 -15 8 -26 -1 -8 -7 -30 -11 -48 -9 -58 5 -64 67 -13 142
14 20 25 39 25 41 0 10 -48 -11 -73 -32 -16 -12 -33 -23 -38 -23 -5 0 -20 -22
-34 -49 -40 -81 -94 -103 -138 -58 l-22 22 -24 -22 c-30 -28 -72 -29 -96 -3
-18 19 -18 19 -45 0 -33 -24 -73 -26 -90 -5 -11 13 -15 13 -33 0 -32 -22 -84
-19 -97 5 l-11 21 -26 -21 c-31 -24 -69 -26 -81 -4 -9 16 -11 16 -33 0 -32
-22 -104 -21 -127 2 -18 18 -19 18 -42 0 -32 -26 -88 -24 -99 4 -10 28 4 80
36 136 14 23 20 42 14 42 -25 0 -89 -73 -119 -135 -18 -36 -37 -63 -42 -60
-14 9 -12 56 5 85 19 33 18 40 -4 40 -13 0 -26 -15 -41 -45 -38 -79 -93 -105
-141 -66 -30 24 -31 81 -3 136 21 40 74 85 101 85 20 0 63 -49 63 -71 0 -31
27 -21 73 27 36 37 45 43 51 29 3 -9 3 -21 0 -27 -4 -5 12 2 35 17 22 15 47
25 56 21 24 -9 18 -58 -15 -117 -31 -56 -39 -99 -18 -99 17 0 58 41 58 57 0
26 21 57 30 44 4 -8 18 5 39 37 17 27 31 53 31 57 0 5 7 17 17 27 18 21 49 25
36 6 -4 -7 -8 -59 -8 -115 0 -121 4 -120 74 13 25 48 51 89 57 91 27 9 19 -40
-19 -117 -31 -61 -38 -83 -29 -92 18 -18 60 28 117 127 27 47 53 85 57 85 3 0
9 -9 13 -20 4 -12 -9 -47 -36 -99 -22 -44 -38 -84 -34 -90 19 -32 67 12 85 79
16 59 59 142 106 207 41 56 54 62 74 38z m620 -53 c0 -5 -16 -16 -35 -25 -61
-29 -90 -17 -37 15 28 18 72 24 72 10z m-766 -498 c37 -37 2 -88 -97 -141 -49
-27 -52 -30 -49 -63 4 -40 40 -124 69 -159 l20 -24 62 74 c80 95 110 119 144
119 22 0 27 -5 27 -23 0 -20 -4 -23 -30 -19 -21 3 -41 -3 -63 -18 -36 -25
-122 -125 -122 -142 0 -19 86 -58 126 -58 21 0 50 5 66 10 25 9 26 9 10 -4
-43 -33 -165 -28 -224 10 -19 12 -26 12 -55 -5 -76 -44 -149 -34 -194 25 -22
29 -26 42 -22 79 6 51 42 104 92 137 25 17 36 34 46 71 18 71 92 147 142 147
20 0 44 -7 52 -16z m-560 -651 c-16 -32 -31 -61 -32 -66 -2 -4 7 -5 21 -2 38
10 57 -23 46 -80 -22 -119 -105 -189 -158 -136 -20 20 -20 20 -26 0 -10 -31
-25 -22 -25 16 0 35 88 218 155 325 27 42 29 43 38 23 8 -17 3 -35 -19 -80z
m-154 30 c0 -13 -10 -62 -21 -109 -16 -64 -19 -88 -10 -97 15 -15 14 -27 -4
-27 -11 0 -15 -11 -15 -37 0 -52 -14 -73 -29 -45 -6 11 -11 35 -11 52 l0 31
-47 -6 c-69 -9 -70 -10 -95 -57 l-23 -43 -3 32 c-2 18 2 41 7 52 7 13 8 22 1
26 -16 10 -12 25 8 25 11 0 37 30 69 78 29 43 73 99 98 126 38 39 49 45 61 36
8 -7 14 -23 14 -37z m1170 14 c0 -12 -8 -38 -18 -57 -10 -19 -41 -78 -69 -130
-65 -122 -71 -140 -44 -140 24 0 77 67 86 110 8 37 63 98 96 106 21 4 32 -1
53 -23 14 -15 26 -37 26 -48 0 -11 7 -28 14 -38 12 -16 16 -13 45 31 17 27 31
53 31 59 0 16 38 46 50 38 5 -3 7 -12 3 -18 -10 -15 -10 -197 -1 -197 4 0 19
17 33 37 22 34 25 35 25 14 0 -13 -15 -38 -34 -57 -29 -29 -41 -34 -80 -34
-51 0 -81 21 -92 65 l-6 26 -24 -35 c-42 -61 -88 -73 -129 -32 l-24 24 -22
-24 c-26 -28 -70 -32 -93 -8 -14 14 -18 14 -38 0 -28 -20 -62 -20 -78 -1 -11
13 -15 13 -33 0 -31 -22 -74 -19 -88 6 l-11 21 -22 -21 c-31 -30 -73 -28 -88
4 -11 25 -12 25 -32 6 -12 -10 -36 -26 -54 -35 -23 -12 -40 -33 -60 -79 -37
-80 -78 -129 -106 -125 -26 4 -41 45 -32 84 8 31 78 104 101 104 8 0 19 9 25
19 9 18 8 18 -20 8 -97 -37 -88 114 11 197 41 35 75 43 98 22 17 -15 19 -15
25 -1 8 21 26 10 26 -16 0 -11 -18 -56 -41 -100 -22 -45 -38 -83 -35 -86 11
-11 77 52 105 102 16 29 47 67 68 84 41 34 90 41 100 15 5 -15 7 -15 15 0 14
26 28 19 28 -15 0 -17 -16 -59 -35 -93 -35 -62 -44 -96 -26 -96 28 0 46 19 71
74 47 105 150 179 178 129 8 -14 14 -9 32 28 56 108 90 145 90 96z m-807 -133
c34 -39 36 -72 8 -127 -42 -83 -106 -112 -147 -66 -43 48 -3 171 66 206 36 18
47 16 73 -13z"/>
<path d="M8380 5405 c-6 -15 -10 -139 -10 -286 0 -214 3 -265 15 -289 9 -17
18 -30 21 -30 18 0 27 81 30 285 4 268 0 321 -27 336 -16 8 -21 6 -29 -16z"/>
<path d="M6447 5190 c-117 -107 -128 -126 -143 -247 -8 -59 -16 -108 -18 -111
-3 -2 -8 28 -12 67 -4 46 -11 70 -18 68 -16 -5 -138 -159 -202 -255 -57 -85
-147 -263 -160 -315 -6 -27 -5 -28 22 -21 93 22 154 76 349 309 165 197 197
247 229 359 26 91 42 206 28 206 -5 0 -39 -27 -75 -60z"/>
<path d="M7206 4655 c-26 -55 -70 -147 -98 -205 l-51 -105 12 -105 c6 -58 11
-178 11 -268 l0 -162 47 -30 c26 -17 52 -30 59 -30 17 0 22 44 55 560 22 336
24 375 18 410 -6 34 -7 33 -53 -65z"/>
<path d="M6393 4632 c-38 -58 -68 -117 -77 -157 -4 -16 -4 -175 0 -352 l7
-323 42 0 42 0 6 238 c5 224 20 372 38 372 9 0 36 -72 79 -212 33 -107 50
-134 50 -80 0 15 3 44 6 65 6 35 8 37 45 37 43 0 44 3 33 72 -5 30 -15 43 -43
60 -20 11 -66 41 -103 66 l-68 46 0 61 c0 73 -10 155 -19 155 -3 0 -20 -21
-38 -48z"/>
<path d="M6902 4248 c-17 -17 -15 -65 4 -72 20 -8 66 39 62 62 -4 21 -48 28
-66 10z"/>
<path d="M5560 3925 l0 -286 33 -14 c17 -7 35 -11 38 -7 3 4 11 53 18 109 6
57 19 133 27 170 8 38 17 120 21 184 l6 116 -48 6 c-26 4 -58 7 -71 7 l-24 0
0 -285z"/>
<path d="M4345 6544 c-4 -37 -18 -95 -31 -130 -21 -56 -24 -87 -30 -269 -5
-138 -4 -205 3 -205 15 0 266 91 278 100 6 5 8 64 4 162 -5 125 -10 163 -28
207 -12 30 -25 86 -29 125 l-7 71 -76 3 -77 3 -7 -67z"/>
<path d="M4975 4220 c-3 -5 -4 -18 -1 -28 3 -9 8 -125 11 -257 l6 -240 42 0
42 0 8 182 c5 100 5 219 0 265 l-8 83 -47 3 c-25 2 -49 -2 -53 -8z"/>
<path d="M4225 3978 c3 -112 9 -212 13 -223 11 -34 20 77 21 258 1 163 1 167
-20 167 -21 0 -21 -1 -14 -202z"/>
<path d="M3617 4918 c4 -13 8 -62 7 -110 -1 -80 0 -86 16 -78 21 11 80 77 80
89 0 28 -44 103 -66 112 -39 14 -46 12 -37 -13z"/>
<path d="M6385 2859 c-51 -86 -52 -87 -26 -64 30 26 74 101 69 117 -2 6 -22
-17 -43 -53z"/>
<path d="M6409 2824 c-11 -19 -36 -46 -54 -60 -50 -38 -77 -134 -37 -134 28 0
76 57 116 137 20 40 36 74 36 77 0 2 -9 6 -20 9 -14 4 -25 -4 -41 -29z"/>
<path d="M7121 2779 c-47 -47 -80 -124 -63 -141 9 -9 18 -6 38 13 54 50 106
169 74 169 -6 0 -28 -18 -49 -41z"/>
<path d="M5485 2762 c-15 -22 -29 -59 -32 -81 -5 -36 -3 -41 15 -41 22 0 66
47 77 80 4 13 -1 33 -13 52 l-20 31 -27 -41z"/>
<path d="M6605 2762 c-15 -22 -29 -59 -32 -81 -5 -36 -3 -41 15 -41 21 0 66
46 77 79 3 11 -2 33 -14 51 l-19 32 -27 -40z"/>
<path d="M5907 2723 c-26 -43 -27 -47 -12 -69 8 -13 20 -24 25 -24 14 0 22 40
18 92 l-3 45 -28 -44z"/>
<path d="M6207 2400 c-26 -21 -67 -123 -54 -136 9 -10 95 44 113 71 8 13 14
36 12 52 -4 36 -34 42 -71 13z"/>
<path d="M6071 2201 c-53 -53 -65 -137 -28 -192 20 -30 28 -34 72 -36 31 -2
57 2 68 11 17 13 16 17 -17 60 -20 26 -41 66 -47 89 -6 23 -14 53 -18 66 l-7
25 -23 -23z"/>
<path d="M5685 1639 c-30 -37 -65 -102 -65 -123 0 -20 16 -29 40 -21 28 9 80
102 80 143 0 41 -20 42 -55 1z"/>
<path d="M5513 1727 c-35 -39 -95 -129 -89 -134 2 -3 22 -2 44 2 l39 6 15 72
c9 40 15 73 14 74 -2 2 -12 -7 -23 -20z"/>
<path d="M6098 1638 c-36 -34 -78 -105 -78 -132 0 -26 21 -29 45 -6 37 35 92
147 79 160 -8 8 -21 2 -46 -22z"/>
<path d="M6336 1635 c-53 -53 -89 -136 -65 -150 24 -16 119 113 119 163 0 31
-14 28 -54 -13z"/>
<path d="M6586 1649 c-59 -46 -113 -169 -75 -169 32 0 113 131 107 172 -3 19
-4 19 -32 -3z"/>
<path d="M6775 1612 c-15 -22 -29 -59 -32 -81 -5 -36 -3 -41 15 -41 21 0 66
46 77 79 3 11 -2 33 -14 51 l-19 32 -27 -40z"/>
<path d="M6947 1573 c-28 -41 -28 -45 -13 -68 9 -14 21 -25 26 -25 14 0 22 40
18 92 l-3 45 -28 -44z"/>
<path d="M6013 1388 c-26 -29 -43 -62 -43 -84 0 -25 22 -3 54 56 29 53 24 65
-11 28z"/>
<path d="M5865 1612 c-15 -22 -29 -59 -32 -81 -5 -36 -3 -41 15 -41 21 0 66
46 77 79 3 11 -2 33 -14 51 l-19 32 -27 -40z"/>
</g>
</svg>
