<?xml version="1.0" standalone="no"?>
<!DOCTYPE svg PUBLIC "-//W3C//DTD SVG 20010904//EN"
 "http://www.w3.org/TR/2001/REC-SVG-20010904/DTD/svg10.dtd">
<svg version="1.0" xmlns="http://www.w3.org/2000/svg"
 width="1096.000000pt" height="577.000000pt" viewBox="0 0 1096.000000 577.000000"
 preserveAspectRatio="xMidYMid meet">
<metadata>
Created by potrace 1.15, written by Peter Selinger 2001-2017
</metadata>
<g transform="translate(0.000000,577.000000) scale(0.100000,-0.100000)"
fill="#000000" stroke="none">
<path d="M0 2885 l0 -2885 5480 0 5480 0 0 2885 0 2885 -5480 0 -5480 0 0
-2885z m8675 1903 c3 -229 11 -454 16 -500 6 -45 14 -225 19 -398 4 -179 13
-347 21 -390 9 -53 13 -182 14 -435 0 -330 -2 -372 -23 -505 -23 -143 -34
-361 -19 -376 8 -9 188 19 258 39 l42 12 -2 162 c-3 240 14 422 54 588 27 110
36 170 41 283 4 78 8 142 10 142 2 0 14 -5 28 -11 21 -10 26 -21 32 -66 12
-99 -1 -241 -30 -326 -28 -82 -46 -199 -46 -304 0 -34 -7 -97 -15 -140 -8 -43
-19 -148 -25 -234 -5 -85 -12 -163 -16 -173 -10 -27 -46 -36 -213 -52 -121
-11 -162 -19 -188 -35 -53 -33 -122 -126 -170 -229 -145 -309 -187 -380 -293
-497 -59 -64 -179 -165 -189 -159 -12 8 -30 109 -36 206 -3 47 -14 213 -25
370 -10 157 -21 313 -23 347 -2 35 -6 65 -9 69 -4 3 -28 -9 -54 -27 -62 -42
-119 -62 -158 -54 -57 12 -157 69 -206 117 -76 75 -139 179 -218 363 -40 93
-79 176 -86 183 -23 24 -28 -62 -21 -357 5 -229 3 -292 -10 -371 -10 -61 -19
-211 -25 -420 -9 -288 -27 -500 -44 -517 -8 -8 -109 36 -193 83 l-66 36 8 303
c7 296 6 303 -14 344 -12 23 -26 39 -31 36 -6 -4 -10 -72 -10 -160 l0 -154
-56 -11 c-30 -7 -59 -9 -62 -5 -4 3 -11 41 -17 83 l-10 77 -62 3 c-35 2 -63 6
-63 9 0 3 14 30 31 59 17 30 29 60 27 68 -4 18 -146 186 -158 186 -22 0 -43
-90 -48 -207 l-4 -123 -53 0 -53 0 -17 -75 -18 -75 -43 0 c-71 0 -74 3 -74 84
-1 81 -22 202 -38 218 -8 8 -15 3 -24 -18 -10 -22 -12 -95 -9 -306 1 -152 0
-299 -4 -327 l-7 -51 -93 0 c-107 0 -98 -9 -116 110 -8 52 -9 155 -5 337 8
272 0 503 -16 503 -5 0 -46 -29 -91 -64 -45 -35 -134 -97 -199 -139 -64 -42
-120 -82 -125 -89 -4 -7 -10 -189 -13 -405 -5 -378 -6 -393 -26 -420 -23 -30
-132 -112 -151 -113 -17 0 -50 109 -72 240 -30 176 -34 231 -21 265 12 30 12
30 21 7 5 -13 20 -87 34 -165 14 -78 32 -166 41 -195 l15 -53 27 20 c15 10 37
29 50 41 l22 21 0 369 0 369 -28 20 c-33 23 -139 71 -158 71 -11 0 -14 -26
-13 -132 0 -73 4 -176 8 -228 4 -52 6 -97 4 -99 -2 -3 -17 6 -34 18 -17 13
-33 20 -36 17 -3 -3 -7 -33 -9 -68 -13 -190 -59 -486 -79 -506 -9 -9 -107 46
-144 80 l-31 29 1 127 c0 70 4 244 8 387 7 195 6 269 -3 295 -7 19 -42 79 -79
132 -71 104 -110 205 -144 378 -29 145 -21 635 17 1045 16 164 49 436 60 499
14 71 63 219 84 251 14 21 19 22 58 13 51 -11 105 -50 120 -86 8 -21 3 -66
-21 -197 -66 -365 -88 -618 -72 -835 6 -82 6 -179 -1 -284 -17 -256 14 -614
60 -675 10 -14 30 -33 44 -44 22 -17 31 -18 61 -8 49 16 62 35 111 154 138
332 354 678 605 967 118 135 115 128 107 293 -3 77 -11 183 -16 236 -6 53 -15
172 -20 265 -6 92 -19 256 -30 362 -12 107 -20 225 -18 262 l3 67 18 -32 c30
-56 47 -154 57 -338 6 -99 15 -205 21 -235 5 -30 13 -201 16 -380 3 -179 8
-328 12 -332 3 -4 53 20 110 52 112 63 206 100 255 100 55 -1 113 -35 145 -85
44 -69 47 -123 17 -300 -54 -321 -106 -677 -106 -725 0 -60 20 -140 35 -140
15 0 59 48 79 86 9 19 24 107 36 215 35 306 78 538 114 607 18 34 54 68 84 77
32 9 88 -12 112 -42 30 -38 26 -136 -14 -359 -55 -304 -67 -391 -73 -539 l-6
-140 23 20 c45 39 80 81 127 149 99 149 157 293 308 770 l76 239 9 204 c5 112
11 207 14 211 2 4 9 75 16 157 6 83 20 228 31 322 13 118 19 242 19 390 0 187
2 219 17 235 9 10 25 18 36 18 19 0 19 -6 14 -247 -5 -225 -8 -262 -36 -398
-24 -115 -34 -196 -41 -347 -6 -108 -17 -264 -25 -345 -8 -81 -15 -156 -15
-165 0 -10 24 -35 53 -57 80 -61 94 -85 112 -198 37 -235 123 -501 198 -615
38 -56 87 -98 141 -118 25 -9 32 -8 53 12 38 36 100 173 127 283 33 133 60
355 52 430 -3 33 -16 103 -29 155 l-22 95 -60 2 c-33 2 -75 5 -92 8 -31 6 -33
9 -33 45 0 21 9 76 20 122 25 102 26 229 4 463 -18 198 -22 483 -7 509 11 20
11 18 34 -169 6 -44 16 -237 22 -430 l12 -350 25 3 c13 1 29 7 35 13 6 6 10
74 9 172 -1 127 -9 217 -37 412 -54 379 -70 699 -37 720 10 6 60 -51 60 -68 6
-465 9 -547 29 -707 11 -96 22 -238 22 -315 1 -77 4 -152 8 -167 4 -19 25 -39
68 -67 115 -74 155 -134 200 -299 22 -81 27 -118 27 -227 0 -72 -6 -153 -13
-181 -18 -74 -99 -279 -165 -419 -65 -136 -64 -130 -32 -360 10 -71 16 -186
16 -325 0 -227 8 -380 20 -380 15 0 95 60 143 106 74 73 118 144 226 366 68
139 120 231 165 291 36 49 69 101 74 115 17 61 6 265 -22 405 l-28 138 5 367
c3 271 9 392 20 462 11 60 17 166 18 290 1 107 8 247 16 310 8 74 15 275 18
557 5 389 12 510 29 492 3 -2 7 -191 11 -421z m-5779 364 c17 -9 26 -30 39
-89 9 -43 29 -126 45 -184 35 -126 47 -324 35 -544 -8 -138 -8 -139 -23 -105
-13 28 -17 85 -20 269 l-4 233 -29 49 c-37 64 -58 128 -67 209 l-7 65 -90 0
-90 0 -6 -60 c-7 -69 -30 -154 -65 -237 -23 -56 -24 -64 -24 -345 -1 -261 -9
-401 -26 -457 -7 -20 -7 -19 -17 4 -7 16 -13 165 -15 400 -4 389 -1 436 38
523 10 23 30 91 45 151 14 60 31 116 37 124 10 11 34 13 118 10 58 -2 115 -10
126 -16z m534 11 c2 -80 25 -204 49 -264 47 -118 54 -179 46 -408 -7 -195 -7
-203 11 -198 74 22 262 39 384 34 149 -5 245 -29 364 -90 83 -43 175 -136 214
-217 43 -87 55 -162 49 -300 -7 -187 -60 -314 -205 -494 -117 -145 -107 -95
-105 -531 2 -209 -1 -425 -5 -480 l-7 -100 -21 21 c-29 29 -36 147 -32 561 2
177 0 324 -3 327 -3 4 -49 -23 -102 -59 -141 -96 -217 -136 -363 -190 -182
-67 -176 -59 -118 -140 106 -149 395 -443 508 -517 67 -43 140 -68 200 -68 24
0 77 15 126 35 46 19 87 35 91 35 17 0 49 -70 49 -108 0 -75 -61 -122 -232
-177 -81 -26 -86 -30 -91 -59 -3 -17 -3 -134 0 -261 6 -232 -5 -381 -30 -435
-10 -21 -22 -26 -75 -33 -34 -5 -62 -12 -62 -16 0 -3 13 -66 30 -139 38 -168
90 -276 120 -246 6 6 25 69 44 142 19 73 44 152 55 176 20 41 67 94 75 85 9
-9 -16 -121 -54 -248 -41 -136 -68 -267 -57 -277 3 -4 48 33 100 81 151 139
194 156 286 115 42 -20 43 -21 37 -58 -13 -69 -62 -157 -127 -227 -88 -94
-102 -99 -288 -100 l-154 0 -13 32 c-8 18 -28 84 -46 148 -25 92 -35 115 -49
115 -32 0 -222 -39 -229 -47 -4 -5 -22 -51 -39 -103 -39 -114 -63 -156 -105
-181 -64 -39 -63 -22 11 144 l26 58 -29 30 -29 31 30 25 c87 73 113 105 159
193 27 52 73 137 102 188 l54 93 0 354 0 355 -99 0 c-54 0 -119 -3 -145 -6
l-47 -7 3 -331 c2 -242 -1 -355 -11 -419 -15 -102 -16 -102 -122 -109 l-66 -4
-7 90 c-8 117 -8 815 1 1074 4 146 9 200 17 192 8 -8 13 -204 16 -633 l5 -622
45 3 c25 2 51 8 57 14 10 8 13 120 15 477 l3 466 45 0 44 0 14 -47 13 -48 95
0 c52 0 94 3 94 7 0 10 -51 76 -79 101 -14 13 -54 48 -88 78 -65 57 -163 170
-278 319 -134 175 -368 383 -404 360 -14 -8 -14 -355 -1 -511 13 -163 19 -172
134 -229 53 -27 99 -52 102 -56 3 -5 9 -50 13 -101 5 -51 12 -101 16 -110 7
-17 4 -17 -36 -2 -48 17 -196 54 -216 54 -10 0 -13 -74 -13 -339 0 -187 -3
-346 -6 -355 -4 -12 -20 -16 -54 -16 l-49 0 -7 48 c-9 53 -11 416 -4 597 l4
120 -42 93 c-104 229 -117 317 -109 737 9 432 41 679 139 1053 18 71 25 85 47
94 48 18 78 20 134 8 l56 -11 7 -57 c13 -92 8 -137 -36 -327 -51 -224 -80
-378 -80 -426 l0 -37 75 -11 c119 -17 192 -14 290 15 360 104 663 333 806 610
109 211 54 459 -114 509 -149 44 -405 42 -589 -6 l-37 -9 -3 -483 c-3 -393 -6
-488 -18 -512 -14 -30 -14 -29 -21 45 -3 41 -7 265 -8 498 l-1 422 -25 0 c-31
0 -208 -66 -295 -110 -106 -53 -235 -132 -405 -247 l-160 -108 -5 -1320 c-5
-1242 -6 -1322 -23 -1346 -9 -14 -34 -33 -55 -42 -40 -18 -122 -40 -127 -35
-10 11 -46 200 -51 264 -5 74 -4 78 11 59 9 -11 23 -45 31 -75 8 -30 21 -73
27 -95 l12 -40 50 3 c28 2 52 6 55 9 8 7 12 2263 5 2411 l-7 133 -42 20 c-53
27 -146 90 -146 100 0 16 82 109 145 165 76 68 235 174 430 288 75 44 141 89
147 100 7 13 11 128 12 325 l1 306 32 93 c26 73 53 210 53 264 0 14 280 25
280 11z m4011 -100 c5 -13 9 -158 9 -321 0 -163 5 -400 11 -527 7 -158 7 -288
1 -415 -6 -102 -9 -186 -8 -188 2 -1 28 7 59 19 l56 21 5 62 c9 96 25 604 33
1009 l6 367 34 0 33 0 0 -217 c0 -142 -6 -255 -16 -323 -9 -61 -19 -240 -24
-430 -5 -179 -15 -389 -24 -467 -14 -130 -18 -213 -13 -318 l2 -40 -77 -3 -78
-3 0 43 c0 24 -5 99 -11 168 -6 69 -14 316 -17 550 -6 344 -10 430 -22 450
-14 24 -15 20 -22 -65 -14 -177 -30 -361 -38 -440 -5 -44 -9 -182 -9 -307 -1
-126 -5 -228 -10 -228 -5 0 -15 15 -22 33 -31 73 -6 645 43 987 15 102 22 212
25 370 2 124 5 230 8 236 6 20 56 3 66 -23z m-1817 -149 c40 -51 65 -121 72
-206 l6 -73 -21 32 c-11 18 -32 56 -47 85 -30 60 -71 118 -83 118 -13 0 -57
-106 -80 -190 -45 -166 -68 -376 -92 -870 -6 -124 -14 -263 -19 -310 -5 -47
-9 -206 -10 -355 -1 -148 -5 -292 -9 -320 l-7 -50 -14 60 c-10 45 -13 137 -11
360 1 293 18 812 26 824 2 4 9 88 15 186 13 219 32 357 66 495 31 126 60 194
103 243 30 34 34 35 54 22 12 -8 35 -31 51 -51z m3771 -1054 c2 -91 8 -189 14
-219 16 -77 14 -157 -5 -197 -9 -19 -19 -32 -22 -30 -2 3 -11 47 -18 98 -25
169 -32 161 -44 -53 -6 -102 -19 -211 -34 -289 -16 -79 -30 -196 -38 -317 -10
-169 -14 -193 -28 -193 -9 0 -25 9 -36 21 -24 27 -24 107 -1 199 9 36 21 131
26 211 8 112 15 160 34 210 30 79 33 96 54 289 10 90 16 212 14 292 -2 123 0
141 19 185 l22 48 21 -45 c18 -39 21 -68 22 -210z m-7113 -241 c4 -24 9 -188
12 -364 4 -329 6 -344 52 -488 18 -54 25 -92 22 -125 -6 -56 -75 -317 -113
-421 -33 -90 -31 -120 34 -546 25 -165 44 -367 39 -425 l-3 -45 -26 64 -26 63
-6 -119 c-7 -124 -38 -270 -76 -354 -19 -43 -40 -60 -88 -74 -25 -7 -24 -11
-53 138 -35 178 -81 288 -149 356 -65 65 -343 269 -438 321 l-42 23 -63 -50
c-35 -28 -137 -101 -226 -163 -184 -126 -234 -181 -271 -292 -27 -84 -51 -235
-51 -329 0 -42 -4 -101 -10 -130 -10 -55 -83 -214 -120 -259 l-20 -25 0 36 c0
37 10 74 55 199 22 60 30 109 41 250 15 185 29 251 73 340 70 140 125 201 254
279 48 29 137 89 199 133 l111 80 85 -16 c46 -9 88 -13 93 -10 5 3 9 367 9
845 0 461 2 839 4 839 1 0 18 -5 36 -11 63 -23 61 10 59 -934 0 -469 1 -857 4
-862 3 -5 45 -33 92 -62 106 -65 189 -146 233 -228 18 -34 45 -112 61 -175 31
-125 56 -192 69 -184 12 7 59 131 71 186 14 59 14 441 1 595 -6 66 -24 228
-41 360 -17 135 -34 329 -39 445 -5 113 -12 233 -16 267 -6 55 -4 66 19 105
14 24 39 56 56 72 l31 30 0 340 c0 188 3 351 6 363 5 17 10 20 27 14 16 -6 24
-20 29 -52z m7302 -241 c4 -18 11 -87 16 -154 5 -70 22 -173 39 -245 44 -180
51 -252 60 -569 6 -217 12 -293 23 -320 9 -19 48 -80 88 -135 163 -227 219
-393 281 -843 23 -171 29 -248 28 -385 0 -246 -11 -291 -27 -117 -41 438 -71
636 -127 855 -54 209 -83 268 -240 495 l-69 101 -7 227 c-5 202 -9 234 -29
287 -19 49 -24 89 -30 225 -3 91 -10 173 -15 183 -16 38 -25 -9 -25 -140 l0
-131 -39 -31 c-22 -18 -42 -27 -45 -22 -4 5 -11 70 -17 143 -5 73 -21 216 -35
318 -34 257 -33 264 23 216 l28 -24 6 -209 c7 -227 6 -213 17 -213 21 0 43
114 53 265 14 220 19 266 28 260 5 -2 12 -19 15 -37z m-4502 -528 c3 -58 3
-195 -2 -305 -6 -163 -11 -212 -29 -267 -12 -38 -26 -68 -30 -68 -16 0 -22 89
-20 331 1 134 -2 276 -6 315 -8 80 6 108 54 102 26 -3 26 -4 33 -108z m1242
-1786 c12 -32 5 -96 -24 -216 -27 -111 -30 -138 -30 -285 l0 -163 33 0 34 0
10 109 c9 88 16 119 39 161 52 95 132 150 221 150 42 0 47 -20 41 -148 -6
-111 -30 -186 -83 -255 -47 -61 -76 -71 -189 -64 -142 10 -143 10 -194 140 -6
16 -21 5 -93 -66 -64 -65 -95 -88 -127 -96 -54 -15 -76 -3 -161 82 l-64 65
-70 -56 c-39 -31 -102 -73 -141 -93 -70 -35 -70 -36 -100 -110 -23 -56 -44
-88 -87 -131 -77 -78 -96 -81 -188 -32 -93 49 -113 82 -109 176 l3 63 63 -103
c35 -56 68 -102 74 -102 46 0 102 27 134 63 56 67 74 142 74 319 0 115 -3 149
-12 146 -7 -3 -35 -38 -63 -79 -27 -40 -71 -95 -97 -121 -39 -40 -53 -48 -84
-48 -80 0 -103 60 -63 164 49 133 224 326 293 326 38 0 45 -15 61 -125 17
-127 35 -214 45 -220 8 -5 50 45 107 130 78 115 159 177 233 179 l35 1 -2 -87
c-2 -48 -9 -128 -16 -178 -8 -50 -11 -93 -7 -95 19 -11 76 46 126 128 75 123
118 161 205 188 38 11 69 22 69 22 0 44 36 185 57 224 30 56 37 62 47 37z
m661 -246 c3 -3 3 -17 0 -31 -5 -20 -17 -27 -69 -41 -80 -22 -121 -47 -141
-86 -25 -49 -16 -56 76 -64 73 -7 86 -11 112 -37 24 -25 28 -35 23 -62 -11
-55 -51 -103 -111 -132 -58 -29 -97 -30 -157 -6 -25 9 -28 16 -28 56 0 25 1
45 3 45 2 0 27 -11 55 -25 29 -14 59 -25 67 -25 17 0 115 58 115 69 0 4 -52
22 -115 41 -63 19 -120 37 -126 41 -29 17 52 167 113 211 59 42 162 68 183 46z
m-1979 -44 c10 -66 -1 -201 -21 -254 -8 -25 -28 -62 -42 -83 -29 -42 -114 -97
-151 -97 -37 0 -71 29 -82 70 -21 77 14 236 68 315 35 50 118 95 178 95 l43 0
7 -46z"/>
<path d="M8626 3461 c-17 -26 -24 -180 -22 -456 3 -294 4 -312 24 -352 29 -56
38 -59 51 -21 22 67 28 181 26 487 l-1 314 -23 18 c-25 20 -47 24 -55 10z"/>
<path d="M6049 3176 c-76 -62 -173 -166 -194 -205 -15 -30 -29 -109 -40 -229
-4 -39 -11 -74 -15 -77 -5 -3 -11 25 -15 62 -4 38 -10 83 -14 102 l-6 33 -76
-88 c-79 -92 -178 -227 -243 -327 -84 -133 -197 -389 -176 -402 15 -9 114 30
164 65 71 48 149 129 312 324 254 303 281 344 328 491 36 114 63 289 46 300
-4 2 -36 -20 -71 -49z"/>
<path d="M7054 2453 c-25 -54 -82 -173 -126 -265 l-80 -167 6 -78 c3 -43 9
-206 12 -363 5 -234 9 -288 21 -302 18 -20 134 -90 140 -85 7 8 41 440 47 607
4 91 16 254 26 364 22 219 26 371 10 381 -6 4 -30 -35 -56 -92z"/>
<path d="M5955 2409 c-20 -28 -53 -81 -73 -118 l-37 -66 -3 -445 c-2 -245 0
-460 3 -478 l6 -33 57 3 57 3 6 325 c3 179 8 332 11 340 3 8 12 48 19 88 7 42
17 71 23 69 6 -2 41 -95 78 -208 38 -112 70 -210 73 -218 11 -28 19 2 25 82
l5 82 59 3 58 3 -6 52 c-11 84 -15 91 -64 122 -26 16 -89 55 -139 88 l-93 59
0 82 c0 104 -11 216 -21 216 -4 0 -24 -23 -44 -51z"/>
<path d="M4818 1813 c-7 -35 -9 -748 -1 -758 11 -15 94 -46 104 -39 5 3 9 26
9 52 0 26 16 146 36 267 40 252 55 472 33 479 -8 2 -51 7 -95 10 -73 6 -82 4
-86 -11z"/>
<path d="M3176 5008 c-3 -29 -6 -67 -6 -83 0 -17 -16 -71 -36 -120 l-36 -88
-6 -284 c-3 -203 -2 -283 6 -283 10 0 383 130 390 136 8 6 1 314 -9 374 -5 36
-23 107 -39 158 -17 51 -30 109 -30 130 0 20 -3 54 -6 75 l-7 37 -107 0 -107
0 -7 -52z"/>
<path d="M4033 1624 c4 -125 7 -288 7 -363 l0 -136 70 3 70 4 -1 301 c-1 166
-4 327 -7 357 l-7 55 -69 3 -69 3 6 -227z"/>
<path d="M3012 1508 c2 -201 7 -291 16 -312 27 -63 34 -12 35 290 l2 299 -28
3 -28 3 3 -283z"/>
<path d="M3972 943 c-16 -21 -37 -54 -47 -73 -26 -51 -75 -199 -67 -204 4 -2
48 7 97 20 50 13 94 24 99 24 24 0 -21 270 -45 270 -4 0 -21 -17 -37 -37z"/>
<path d="M4552 658 c-37 -15 -80 -46 -134 -96 -77 -73 -79 -77 -73 -111 13
-77 17 -91 27 -91 22 0 150 94 185 136 37 44 82 135 83 167 0 22 -22 21 -88
-5z"/>
<path d="M4126 588 c16 -110 59 -242 76 -232 18 11 48 95 48 135 0 52 -12 73
-62 109 -58 42 -70 40 -62 -12z"/>
<path d="M2174 2808 c32 -77 38 -125 27 -198 -18 -118 -18 -115 31 -88 42 24
108 101 107 128 0 8 -13 44 -29 80 -25 58 -33 66 -67 77 -51 16 -76 16 -69 1z"/>
<path d="M5272 725 c-71 -75 -101 -124 -136 -218 -19 -49 -22 -67 -13 -67 21
0 162 125 201 179 53 72 69 114 54 146 -6 14 -19 25 -28 25 -10 0 -45 -29 -78
-65z"/>
<path d="M6503 728 c-66 -92 -134 -274 -119 -314 3 -8 19 -14 38 -14 47 0 114
74 156 175 38 89 38 131 1 171 -31 33 -41 30 -76 -18z"/>
<path d="M5699 686 c-35 -35 -81 -92 -101 -126 -45 -77 -93 -188 -85 -197 11
-10 84 46 140 107 29 30 67 84 85 118 33 61 54 162 35 162 -6 0 -39 -29 -74
-64z"/>
<path d="M6144 722 c-54 -40 -125 -118 -159 -176 -37 -63 -77 -174 -65 -181
13 -8 169 124 223 190 38 46 47 65 47 95 0 21 3 52 6 69 8 39 -2 39 -52 3z"/>
<path d="M4865 723 c-76 -93 -100 -144 -100 -218 0 -60 22 -115 45 -115 15 0
95 113 124 175 30 63 35 149 11 195 -9 17 -17 30 -19 30 -3 0 -30 -30 -61 -67z"/>
</g>
</svg>
